<mxfile host="Electron" modified="2023-10-22T16:35:49.643Z" agent="Mozilla/5.0 (X11; Linux x86_64) AppleWebKit/537.36 (KHTML, like Gecko) draw.io/22.0.3 Chrome/114.0.5735.289 Electron/25.8.4 Safari/537.36" etag="nkAbjXhiCHb8xtz8Cd-K" version="22.0.3" type="device">
  <diagram name="Seite-1" id="7mCbWylVHkPQhI98J9xv">
    <mxGraphModel dx="3258" dy="1558" grid="1" gridSize="10" guides="1" tooltips="1" connect="1" arrows="1" fold="1" page="0" pageScale="1" pageWidth="827" pageHeight="1169" math="0" shadow="0">
      <root>
        <mxCell id="0" />
        <mxCell id="1" parent="0" />
        <mxCell id="8aG393HZNEAuzpSGDjme-1" value="" style="rounded=0;whiteSpace=wrap;html=1;" vertex="1" parent="1">
          <mxGeometry x="80" y="520" width="1000" height="630" as="geometry" />
        </mxCell>
        <mxCell id="8aG393HZNEAuzpSGDjme-8" value="" style="rounded=0;whiteSpace=wrap;html=1;strokeColor=#808080;" vertex="1" parent="1">
          <mxGeometry x="220" y="540" width="110" height="20" as="geometry" />
        </mxCell>
        <mxCell id="8aG393HZNEAuzpSGDjme-7" value="Explore (Bund)" style="rounded=0;whiteSpace=wrap;html=1;" vertex="1" parent="1">
          <mxGeometry x="110" y="540" width="110" height="20" as="geometry" />
        </mxCell>
        <mxCell id="8aG393HZNEAuzpSGDjme-6" value="" style="rounded=0;whiteSpace=wrap;html=1;fillColor=none;" vertex="1" parent="1">
          <mxGeometry x="110" y="560" width="930" height="510" as="geometry" />
        </mxCell>
        <mxCell id="8aG393HZNEAuzpSGDjme-5" value="Barplot mit den Unterschlüsseln des aktuell im Sunburst ausgewählten Schlüssels, zusammen mit Aufklärungsquote." style="rounded=0;whiteSpace=wrap;html=1;" vertex="1" parent="1">
          <mxGeometry x="513" y="600" width="470" height="220" as="geometry" />
        </mxCell>
        <mxCell id="8aG393HZNEAuzpSGDjme-4" value="Sunburst&#xa;zur Erkundung und&#xa;Auswahl von Schlüsseln" style="group" vertex="1" connectable="0" parent="1">
          <mxGeometry x="274" y="600" width="220" height="220" as="geometry" />
        </mxCell>
        <mxCell id="8aG393HZNEAuzpSGDjme-2" value="" style="ellipse;whiteSpace=wrap;html=1;aspect=fixed;" vertex="1" parent="8aG393HZNEAuzpSGDjme-4">
          <mxGeometry width="220" height="220" as="geometry" />
        </mxCell>
        <mxCell id="8aG393HZNEAuzpSGDjme-3" value="Sunburst" style="ellipse;whiteSpace=wrap;html=1;aspect=fixed;" vertex="1" parent="8aG393HZNEAuzpSGDjme-4">
          <mxGeometry x="40" y="40" width="140" height="140" as="geometry" />
        </mxCell>
        <mxCell id="8aG393HZNEAuzpSGDjme-10" value="Jahr" style="swimlane;whiteSpace=wrap;html=1;" vertex="1" parent="1">
          <mxGeometry x="150" y="600" width="80" height="200" as="geometry">
            <mxRectangle x="130" y="600" width="70" height="30" as="alternateBounds" />
          </mxGeometry>
        </mxCell>
      </root>
    </mxGraphModel>
  </diagram>
</mxfile>
